PathFileType	4	(X/Y/Z)	/Users/itak/Documents/Research/Walk-IL/dataset/trc/00007_00004.trc
DataRate	CameraRate	NumFrames	NumMarkers	Units	OrigDataRate	OrigDataStartFrame	OrigNumFrames
100.000000	100.000000	4	53	mm	100.000000	290	580
Frame#	Time	RPSI			LPSI			L3			STRN			T10			C7			CLAV			RBAK			LBAK			LSHO			LUPA			LAEL			LAOL			LWTS			LWPS			LFRA			LIFD			LHPS			LHTS			RSHO			RUPA			RAEL			RAOL			RWTS			RWPS			RFRA			RIFD			RHTS			RHPS			RBHD			LFHD			RFHD			LBHD			LHIP			RHIP			RASI			LASI			LKNE			LTHI			LANK			LTIP			LTOE			LMT1			LMT5			LHEE			RKNE			RTHI			RANK			RTIP			RTOE			RMT1			RMT5			RHEE			
		X1	Y1	Z1	X2	Y2	Z2	X3	Y3	Z3	X4	Y4	Z4	X5	Y5	Z5	X6	Y6	Z6	X7	Y7	Z7	X8	Y8	Z8	X9	Y9	Z9	X10	Y10	Z10	X11	Y11	Z11	X12	Y12	Z12	X13	Y13	Z13	X14	Y14	Z14	X15	Y15	Z15	X16	Y16	Z16	X17	Y17	Z17	X18	Y18	Z18	X19	Y19	Z19	X20	Y20	Z20	X21	Y21	Z21	X22	Y22	Z22	X23	Y23	Z23	X24	Y24	Z24	X25	Y25	Z25	X26	Y26	Z26	X27	Y27	Z27	X28	Y28	Z28	X29	Y29	Z29	X30	Y30	Z30	X31	Y31	Z31	X32	Y32	Z32	X33	Y33	Z33	X34	Y34	Z34	X35	Y35	Z35	X36	Y36	Z36	X37	Y37	Z37	X38	Y38	Z38	X39	Y39	Z39	X40	Y40	Z40	X41	Y41	Z41	X42	Y42	Z42	X43	Y43	Z43	X44	Y44	Z44	X45	Y45	Z45	X46	Y46	Z46	X47	Y47	Z47	X48	Y48	Z48	X49	Y49	Z49	X50	Y50	Z50	X51	Y51	Z51	X52	Y52	Z52	X53	Y53	Z53	

291	2.9	-277.8310241699219	1038.703369140625	-161.7747192382812	-308.4533081054688	1032.96826171875	-322.4818725585938	-299.9104309082031	1104.82421875	-252.9566650390625	-75.95532989501953	1296.592651367188	-277.5350646972656	-325.9098510742188	1247.872680664062	-259.3206176757812	-277.4094848632812	1514.359985351562	-279.8760681152344	-120.0132064819336	1421.927856445312	-281.3286743164062	-325.3139038085938	1379.845703125	-193.7981262207031	-300.7680053710938	1471.901977539062	-376.313720703125	-201.0368194580078	1475.823852539062	-454.9992065429688	-236.9296112060547	1350.53076171875	-529.80126953125	-242.0252532958984	1133.549194335938	-554.443115234375	-293.5584716796875	1120.76806640625	-462.7720336914062	-137.7354125976562	887.7373657226562	-500.2953796386719	-215.8795318603516	867.5908203125	-537.5552368164062	-224.2960205078125	1018.188171386719	-560.0686645507812	-97.98419952392578	707.0989379882812	-479.5133666992188	-176.5352325439453	780.7200927734375	-537.00341796875	-110.5657730102539	796.3320922851562	-514.434814453125	-189.6714324951172	1502.929809570312	-109.2913055419922	-200.2321624755859	1432.360717773438	-35.20981597900391	-243.0893096923828	1166.447021484375	-4.905688762664795	-250.4462280273438	1136.254760742188	-100.2336349487305	-125.4384002685547	901.8319702148438	-34.1689338684082	-187.5808868408203	891.970703125	33.45630264282227	-231.5128936767578	1091.263671875	12.18607234954834	-118.1134948730469	715.9224853515625	-45.91670989990234	-97.60914611816406	790.3428344726562	-17.55901336669922	-151.6077423095703	789.914306640625	33.90820693969727	-223.3561096191406	1696.272827148438	-347.4240417480469	-40.91830825805664	1705.289916992188	-227.5050659179688	-41.99899673461914	1706.047729492188	-325.9580993652344	-213.3700408935547	1690.963745117188	-203.2805786132812	-234.7312622070312	936.2230834960938	-444.4718627929688	-135.5365753173828	945.6806640625	-82.87794494628906	-55.82913970947266	977.9705200195312	-175.8047485351562	-106.5745162963867	981.7684326171875	-405.7432250976562	-214.1013031005859	484.964599609375	-423.5715942382812	-227.9469451904297	631.3841552734375	-444.9835510253906	-590.5995483398438	130.0390472412109	-404.9623413085938	-417.5342712402344	320.1072692871094	-431.7018127441406	-432.9311218261719	35.32930755615234	-290.2391357421875	-478.3022766113281	66.08718109130859	-289.4320678710938	-496.2559509277344	46.59337615966797	-393.0995788574219	-640.74560546875	192.4226684570312	-368.8810119628906	-5.103511333465576	533.507568359375	-148.9142303466797	-74.51332092285156	790.5650634765625	-92.14036560058594	-44.6751594543457	36.64959335327148	-168.7574768066406	-1.932360649108887	403.927001953125	-150.33349609375	179.3750457763672	46.51741790771484	-237.7899627685547	113.2801971435547	50.06890869140625	-260.194091796875	104.8694610595703	39.22388458251953	-164.0484771728516	-105.5742340087891	38.74871444702148	-205.867431640625	
292	2.91	-268.3772277832031	1040.130615234375	-160.7181091308594	-298.9783935546875	1033.891845703125	-321.3897705078125	-290.3930053710938	1105.948974609375	-251.7725524902344	-66.70847320556641	1297.9189453125	-276.3016357421875	-316.4786071777344	1248.874755859375	-257.9318542480469	-268.4702453613281	1515.433837890625	-278.3913269042969	-110.9075469970703	1423.2080078125	-280.0027770996094	-316.0383911132812	1380.776733398438	-192.36376953125	-291.824951171875	1473.051513671875	-374.8461608886719	-192.0845642089844	1477.189208984375	-453.5289611816406	-228.1394805908203	1352.024658203125	-528.4212646484375	-233.8999786376953	1135.115234375	-553.1768188476562	-285.1371765136719	1122.458251953125	-461.3609619140625	-130.6140289306641	888.697998046875	-499.5687866210938	-208.8886413574219	869.01025390625	-536.6328125	-216.6217956542969	1019.692504882812	-558.9578247070312	-91.88419342041016	707.721435546875	-479.0306091308594	-170.0636444091797	781.9075927734375	-536.178466796875	-104.0023727416992	797.071533203125	-513.7628173828125	-180.7195434570312	1504.09619140625	-107.9730758666992	-191.0323028564453	1433.552978515625	-33.81865310668945	-233.2590637207031	1167.588745117188	-3.223779201507568	-240.6524505615234	1137.293090820312	-98.52102661132812	-114.8234176635742	903.2913208007812	-32.4974365234375	-176.8504638671875	893.286376953125	35.20966339111328	-221.4820861816406	1092.428466796875	14.0200366973877	-106.9701614379883	717.3895874023438	-44.16799163818359	-86.63315582275391	791.8982543945312	-15.88001346588135	-140.5801391601562	791.3494873046875	35.6660270690918	-214.6112976074219	1697.541381835938	-345.8312377929688	-32.00167083740234	1706.472778320312	-226.1402282714844	-33.23062896728516	1707.21337890625	-324.5831909179688	-204.4575347900391	1692.205688476562	-201.7036285400391	-225.0684356689453	936.7525024414062	-443.28955078125	-126.3218536376953	946.8781127929688	-81.47860717773438	-46.38580703735352	979.0692749023438	-174.35205078125	-97.0936279296875	982.8685913085938	-404.269287109375	-196.3376007080078	484.5393371582031	-424.4229125976562	-213.0596618652344	631.341796875	-445.0191955566406	-581.7730102539062	138.8625183105469	-406.256591796875	-402.828369140625	323.3238525390625	-432.7494201660156	-429.9092407226562	34.89607620239258	-290.96044921875	-473.2992858886719	69.10780334472656	-290.0776062011719	-491.8729248046875	50.61149215698242	-393.7497253417969	-629.1123046875	203.2822113037109	-370.4823303222656	0.4188415110111237	533.1920166015625	-148.3626098632812	-66.26402282714844	791.0194091796875	-90.95773315429688	-44.50653457641602	36.70312881469727	-168.7221527099609	2.208048820495605	403.5267944335938	-149.8466033935547	179.7534484863281	45.30143356323242	-238.0563659667969	113.649772644043	49.52418518066406	-260.3327941894531	105.2118148803711	39.09477233886719	-164.1988220214844	-105.4266815185547	38.81167602539062	-205.7790069580078	
293	2.92	-259.1225280761719	1041.515014648438	-159.6907958984375	-289.7357177734375	1034.766723632812	-320.3385620117188	-281.0837707519531	1107.073974609375	-250.6207275390625	-57.6139030456543	1299.159301757812	-275.1536254882812	-307.1741333007812	1249.90087890625	-256.5896301269531	-259.5690612792969	1516.517456054688	-276.9719543457031	-101.8861389160156	1424.423950195312	-278.7623596191406	-306.8355407714844	1381.741333007812	-190.9765777587891	-282.9506225585938	1474.196533203125	-373.4419250488281	-183.2178344726562	1478.485717773438	-452.1491088867188	-219.4757537841797	1353.454956054688	-527.1187744140625	-225.8908386230469	1136.605102539062	-551.9969482421875	-276.9122314453125	1124.070434570312	-460.0688781738281	-123.5141906738281	889.6865844726562	-498.8191833496094	-201.8768157958984	870.380859375	-535.7333984375	-209.0081024169922	1021.131958007812	-557.8955688476562	-85.62195587158203	708.432373046875	-478.4579467773438	-163.4804992675781	783.0813598632812	-535.3311157226562	-97.33711242675781	797.8815307617188	-513.0096435546875	-171.7769317626953	1505.220703125	-106.7192306518555	-181.8525390625	1434.7060546875	-32.49069976806641	-223.4948272705078	1168.707397460938	-1.522207260131836	-230.9991455078125	1138.283447265625	-96.78195953369141	-104.1782531738281	904.78515625	-30.83049392700195	-166.0675506591797	894.5961303710938	36.97087097167969	-211.5010528564453	1093.574096679688	15.87501811981201	-95.62646484375	718.8916625976562	-42.38099670410156	-75.51032257080078	793.5271606445312	-14.17385768890381	-129.4017028808594	792.8109741210938	37.46130752563477	-205.9151458740234	1698.77685546875	-344.3106079101562	-23.17548751831055	1707.665649414062	-224.7869262695312	-24.5185489654541	1708.406372070312	-323.235595703125	-195.6374664306641	1693.386108398438	-200.1965026855469	-215.5591583251953	937.2474365234375	-442.1615905761719	-117.3655242919922	947.98291015625	-80.12973785400391	-37.1815299987793	980.0719604492188	-172.9425354003906	-87.81797790527344	983.9625244140625	-402.8403015136719	-178.2935028076172	484.2882995605469	-424.966552734375	-198.0552368164062	631.3711547851562	-444.9682312011719	-572.093505859375	147.9278411865234	-407.4793701171875	-387.5646667480469	326.5884094238281	-433.6211853027344	-425.7263793945312	34.72007751464844	-292.2311401367188	-467.0480346679688	72.54119873046875	-291.0724792480469	-486.4802551269531	55.44145584106445	-394.7221374511719	-616.7323608398438	214.00244140625	-371.7882385253906	5.594270706176758	532.848388671875	-147.8717803955078	-58.29420471191406	791.4139404296875	-89.89445495605469	-44.38962554931641	36.73695755004883	-168.6931304931641	6.012521266937256	403.1163330078125	-149.3783111572266	180.0126037597656	44.32387161254883	-238.34033203125	113.92333984375	49.09196853637695	-260.4931945800781	105.4751892089844	39.02314376831055	-164.37158203125	-105.3032150268555	38.83039474487305	-205.7413787841797	
294	2.93	-250.0770416259766	1042.846313476562	-158.7181549072266	-280.7056884765625	1035.59765625	-319.3593444824219	-271.9977416992188	1108.192626953125	-249.5298767089844	-48.67528915405273	1300.312866210938	-274.091552734375	-298.0218811035156	1250.951416015625	-255.3113098144531	-250.7075347900391	1517.610107421875	-275.618896484375	-92.95641326904297	1425.5732421875	-277.6097412109375	-297.7142028808594	1382.740844726562	-189.6396179199219	-274.1507263183594	1475.340087890625	-372.1014709472656	-174.4468841552734	1479.707885742188	-450.8621520996094	-210.9431610107422	1354.811889648438	-525.8893432617188	-217.9872894287109	1138.013671875	-550.8922729492188	-268.8756408691406	1125.594482421875	-458.8867492675781	-116.4264907836914	890.6906127929688	-498.0428771972656	-194.8467864990234	871.6930541992188	-534.8588256835938	-201.4542846679688	1022.498901367188	-556.8778076171875	-79.17644500732422	709.224365234375	-477.7806091308594	-156.7877502441406	784.2310791015625	-534.4798583984375	-90.57965087890625	798.74560546875	-512.1973266601562	-162.8376770019531	1506.306274414062	-105.5287475585938	-172.6911163330078	1435.822143554688	-31.22661399841309	-213.7806854248047	1169.80224609375	0.1884299665689468	-221.4693756103516	1139.228515625	-95.02333068847656	-93.51528930664062	906.3070068359375	-29.1782398223877	-155.2428894042969	895.8984985351562	38.72909927368164	-201.5619354248047	1094.70458984375	17.71818923950195	-84.10973358154297	720.4265747070312	-40.56172561645508	-64.26688385009766	795.220703125	-12.45057678222656	-118.0890045166016	794.298828125	39.27698135375977	-197.2620849609375	1699.968139648438	-342.8670349121094	-14.43431854248047	1708.864501953125	-223.4535064697266	-15.85739517211914	1709.628295898438	-321.9192504882812	-186.9017181396484	1694.494262695312	-198.7644805908203	-206.178466796875	937.7245483398438	-441.1156616210938	-108.672737121582	948.9959106445312	-78.85065460205078	-28.21930313110352	980.9874267578125	-171.5858154296875	-78.73447418212891	985.0603637695312	-401.4760131835938	-160.0738983154297	484.2518615722656	-425.1813354492188	-182.9954528808594	631.5054321289062	-444.8113098144531	-561.5628662109375	157.0074005126953	-408.5616455078125	-371.8615112304688	329.8863220214844	-434.2784423828125	-420.0731506347656	34.94661712646484	-294.2315063476562	-459.3198547363281	76.24761962890625	-292.5413208007812	-479.8617248535156	60.96039199829102	-396.1243591308594	-603.6939086914062	224.3080444335938	-372.6536560058594	10.4703950881958	532.4854736328125	-147.3968200683594	-50.60374450683594	791.7645874023438	-88.94905853271484	-44.32099151611328	36.74276351928711	-168.6535949707031	9.530776977539062	402.6993408203125	-148.8960571289062	180.1687774658203	43.57141876220703	-238.6054077148438	114.1100540161133	48.7648811340332	-260.6454162597656	105.6690368652344	38.97268676757812	-164.5359191894531	-105.2053680419922	38.79842758178711	-205.7374420166016	
